# xmcd
# 
# Track frame offsets:
#     150
#     16471
#     33783
#     47274
#     65018
#     84121
#     99398
#     119797
#     137384
#     151582
#     166032
# 
# Disc length: 2387
# 
# Revision: 2
# Processed by: cddbd v1.5.2PL0 Copyright (c) Steve Scherf et al.
# Submitted via: fre:ac v1.0.31
# 
DISCID=7409510b
DTITLE=Adrienne Pauly - Adrienne Pauly
DYEAR=2006
DGENRE=Chanson
TTITLE0=Pourquoi
TTITLE1=La fille au Prisunic
TTITLE2=L'amour avec un con
TTITLE3=C'est quand
TTITLE4=J'veux un mec
TTITLE5=Dans mes bras
TTITLE6=Méchant cafard
TTITLE7=Vas-y viens...
TTITLE8=Nazebroke
TTITLE9=Chut
TTITLE10=L'herbe tendre
EXTD=
EXTT0=
EXTT1=
EXTT2=
EXTT3=
EXTT4=
EXTT5=
EXTT6=
EXTT7=
EXTT8=
EXTT9=
EXTT10=
PLAYORDER=
